<?xml version="1.0" standalone="no"?>
<!DOCTYPE svg PUBLIC "-//W3C//DTD SVG 20010904//EN"
 "http://www.w3.org/TR/2001/REC-SVG-20010904/DTD/svg10.dtd">
<svg version="1.0" xmlns="http://www.w3.org/2000/svg"
 width="390.000000pt" height="390.000000pt" viewBox="0 0 390.000000 390.000000"
 preserveAspectRatio="xMidYMid meet">
<metadata>
Created by potrace 1.14, written by Peter Selinger 2001-2017
</metadata>
<g transform="translate(0.000000,390.000000) scale(0.100000,-0.100000)"
fill="#000000" stroke="none">
<path d="M1886 3517 c-17 -18 -38 -46 -46 -62 -8 -16 -61 -106 -117 -199 -57
-93 -103 -170 -103 -171 0 -1 -22 -39 -50 -85 -52 -87 -58 -107 -39 -143 16
-30 28 -37 71 -37 45 0 34 -15 205 273 l135 228 145 -241 c120 -199 151 -244
176 -255 27 -11 36 -11 59 1 30 16 48 42 48 72 0 10 -51 103 -112 206 -62 103
-122 203 -133 222 -118 203 -136 224 -184 224 -14 0 -36 -13 -55 -33z"/>
<path d="M1813 2291 c-184 -62 -293 -213 -294 -409 -3 -253 148 -424 396 -448
263 -25 475 169 475 436 -1 209 -123 375 -315 425 -75 19 -198 18 -262 -4z
m226 -152 c193 -58 243 -368 79 -493 -146 -111 -364 -43 -414 130 -42 145 14
291 135 351 47 23 144 29 200 12z"/>
<path d="M1543 1054 c-34 -34 -28 -70 27 -160 24 -38 50 -82 60 -99 96 -165
255 -422 268 -432 45 -34 106 -7 142 64 8 15 37 64 64 108 27 44 60 100 74
125 14 25 44 74 67 110 23 36 44 72 48 80 4 8 18 33 32 55 53 85 57 112 20
150 -28 27 -64 32 -95 13 -12 -7 -85 -120 -163 -250 -78 -131 -145 -238 -148
-238 -4 0 -9 8 -13 18 -3 9 -10 24 -16 32 -21 31 -240 403 -240 408 0 2 -10
13 -22 23 -30 27 -74 24 -105 -7z"/>
</g>
</svg>
