<?xml version="1.0" standalone="no"?>
<!DOCTYPE svg PUBLIC "-//W3C//DTD SVG 20010904//EN"
 "http://www.w3.org/TR/2001/REC-SVG-20010904/DTD/svg10.dtd">
<svg version="1.0" xmlns="http://www.w3.org/2000/svg"
 width="512.000000pt" height="512.000000pt" viewBox="0 0 512.000000 512.000000"
 preserveAspectRatio="xMidYMid meet">
<metadata>
Created by potrace 1.14, written by Peter Selinger 2001-2017
</metadata>
<g transform="translate(0.000000,512.000000) scale(0.100000,-0.100000)"
fill="#000000" stroke="none">
<path d="M0 2560 l0 -2560 2560 0 2560 0 0 2560 0 2560 -2560 0 -2560 0 0
-2560z m2613 1498 c36 -33 437 -713 437 -740 0 -23 -24 -66 -44 -80 -24 -17
-87 -8 -109 15 -12 12 -94 142 -182 289 -122 205 -162 265 -171 255 -6 -6 -80
-129 -164 -272 -84 -143 -161 -268 -172 -277 -20 -18 -72 -24 -103 -12 -19 8
-45 55 -45 84 0 30 394 687 436 728 41 39 82 42 117 10z m100 -1025 c150 -44
265 -158 317 -314 30 -88 25 -274 -9 -361 -51 -130 -165 -237 -298 -278 -73
-22 -225 -27 -302 -9 -171 39 -318 196 -350 373 -44 243 53 458 253 556 122
61 258 72 389 33z m-500 -1175 c12 -13 94 -143 182 -290 123 -206 162 -265
171 -255 6 6 84 134 172 283 89 149 168 274 177 278 21 8 69 8 90 0 20 -8 45
-56 45 -87 0 -33 -420 -726 -451 -743 -30 -17 -64 -17 -90 -2 -29 18 -449 720
-449 751 0 14 12 39 26 56 33 40 93 44 127 9z"/>
<path d="M2519 2811 c-21 -22 -29 -39 -29 -66 0 -52 44 -95 97 -95 46 0 76 19
93 59 40 98 -85 177 -161 102z"/>
<path d="M2497 2498 c-8 -24 -33 -89 -55 -145 l-40 -103 71 0 72 0 70 136 c39
74 72 139 73 144 2 6 -34 10 -86 10 l-90 0 -15 -42z"/>
</g>
</svg>
